<?xml version="1.0" encoding="UTF-8"?>
<svg width="259px" height="98px" viewBox="0 0 259 98" version="1.1" xmlns="http://www.w3.org/2000/svg" xmlns:xlink="http://www.w3.org/1999/xlink">
    <!-- Generator: Sketch 49.1 (51147) - http://www.bohemiancoding.com/sketch -->
    <title>Page 1 Copy 21x</title>
    <desc>Created with Sketch.</desc>
    <defs></defs>
    <g id="Newer-Jan-28---now-newer-Mar-15" stroke="none" stroke-width="1" fill="none" fill-rule="evenodd">
        <g id="Mixup_Home-color-3-Copy" transform="translate(-446.000000, -78.000000)" fill="#FF2AAE">
            <g id="Page-1-Copy-2" transform="translate(446.000000, 78.000000)">
                <path d="M32.1012818,31.555649 C37.3196255,27.4000651 43.1440066,26.155326 49.5012052,27.5930965 C57.9457412,29.5023419 63.7250638,36.6336836 63.9261376,45.4186038 C64.0404736,50.3969909 64.0004842,55.3805028 63.9497933,60.3611676 C63.9120568,64.1466323 61.260361,66.8707092 57.6427224,66.9965497 C54.4238521,67.1087243 51.3998599,64.4729066 51.1948435,60.9505112 C50.9582861,56.8848948 51.0833236,52.7987795 51.0461503,48.7212054 C51.0337592,47.3460704 51.0675531,45.9669495 50.9734934,44.5969393 C50.7510168,41.3706392 48.1697249,39.1635903 44.7255618,39.185228 C41.3478601,39.2068658 38.6657497,41.5249504 38.5970354,44.7495423 C38.4877684,49.8702829 38.5750694,54.9955789 38.5300108,60.1185973 C38.4984699,63.7520284 36.315383,66.3508342 32.9461297,66.8883611 C29.3313073,67.4651775 25.7260599,64.6784651 25.6212987,60.9835372 C25.4799275,56.0062889 25.5694814,51.022777 25.541883,46.0415428 C25.5227332,42.5664087 24.1411253,40.4003576 21.4117035,39.4984058 C17.068059,38.0617741 13.0989637,40.9498422 13.0426405,45.669146 C12.9846277,50.4596265 13.0539052,55.2523847 13.0201113,60.0434346 C12.9953291,63.5071804 10.9693839,66.1515393 7.9335639,66.8097819 C4.3131092,67.5950039 0.380624019,65.1966319 0.240942506,61.4436238 C0.00156894497,55.0189249 -0.2834264,48.4797738 0.609296174,42.1558612 C1.93683378,32.7508491 11.091042,26.2521264 20.4936355,27.0692356 C24.8845914,27.4501736 26.8919499,28.2222991 32.1012818,31.555649" id="Fill-1"></path>
                <path d="M246.464011,46.9923683 C246.488314,42.5662624 243.081428,39.0160679 238.831863,39.0393423 C234.491869,39.0631844 231.211583,42.5111987 231.246624,47.0111014 C231.2811,51.441181 234.604905,54.7978007 238.904205,54.7438723 C243.072385,54.6910792 246.440839,51.2373882 246.464011,46.9923683 M231.978528,64.6332132 C231.978528,65.3178206 231.978528,65.8179359 231.978528,66.3186189 C231.978528,70.6232439 232.00283,74.9273013 231.97005,79.2313586 C231.941226,83.0108909 229.331239,85.8168729 225.756496,85.9928499 C222.41517,86.1580412 219.453078,83.4417507 219.045585,79.8296805 C219.003762,79.4550197 219.003197,79.0746823 219.003197,78.6966155 C219.001501,63.9866396 218.99585,49.2760959 219.005458,34.56612 C219.008284,30.440878 220.795938,27.9215683 224.185304,27.1614611 C226.387798,26.6675901 228.270402,27.3351674 229.923545,28.774773 C230.306735,29.1085617 230.599496,29.5456659 230.906387,29.9038643 C239.20714,24.9180379 248.174236,27.286348 253.498768,32.911936 C259.75245,39.5190216 260.79181,49.802324 256.012675,57.7082336 C254.394008,60.3859226 252.22825,62.5260303 249.549877,64.1217445 C246.915588,65.691346 244.053532,66.5377387 240.989143,66.677385 C237.878409,66.8187343 234.970574,65.9831273 231.978528,64.6332132" id="Fill-3"></path>
                <path d="M209,40.8803441 C208.766862,44.4176233 209.001132,48.065905 208.207784,51.4711197 C206.224981,59.978464 200.541398,64.9365751 192.101469,66.6135665 C183.017017,68.4180684 173.741301,63.7724721 169.968655,55.4011769 C168.92576,53.0866328 168.333861,50.4208654 168.181643,47.8769162 C167.895313,43.1038093 168.014146,38.3005325 168.09167,33.512056 C168.147691,30.0607326 170.670898,27.4336738 174.057621,27.0369111 C176.957697,26.6970727 179.989055,28.7389492 180.832199,31.7155235 C181.085142,32.6063896 181.101552,33.5832115 181.115133,34.521894 C181.17851,38.9779323 181.042136,43.4430784 181.288289,47.8877318 C181.518597,52.0426402 184.73273,54.8797499 188.63213,54.8068867 C192.454006,54.7357313 195.570809,51.6481544 195.690207,47.5285391 C195.823752,42.8846505 195.710013,38.2333618 195.757546,33.5860577 C195.790366,30.3316925 198.071948,27.7046337 201.245338,27.1416519 C204.982334,26.4790524 208.632185,29.371948 208.754413,33.1836025 C208.83703,35.7423521 208.770257,38.3056557 208.770257,40.8666823 C208.84665,40.8712362 208.923608,40.8757902 209,40.8803441" id="Fill-5"></path>
                <path d="M87.9883403,47.4664612 C87.9871959,51.7245718 88.0221012,55.9826825 87.9763237,60.2407931 C87.9397017,63.6392984 85.9426595,66.1900045 82.9287851,66.8455309 C78.8460068,67.7343708 75.0779486,64.6838679 75.0315989,60.3543577 C74.9760937,55.1607446 75.0167213,49.9665692 75.0178657,44.7723938 C75.0184379,41.2631349 74.9629327,37.7521895 75.04476,34.2446172 C75.1180039,31.112033 77.6540759,28.374114 80.6101562,28.0457886 C83.9038453,27.6797957 86.8461924,29.5356213 87.7062366,32.6181696 C87.9414184,33.4586602 87.971746,34.372799 87.9774681,35.2537681 C88.0043624,39.3246658 87.9894847,43.3955635 87.9883403,47.4664612" id="Fill-7"></path>
                <path d="M150.541197,85.6877509 C149.489901,86.3261596 148.330024,86.6302991 147.184852,86.6302991 C144.982727,86.6302991 142.833761,85.5052672 141.612243,83.4717962 L128.500158,61.6459498 L115.388072,83.4717962 C114.165989,85.5052672 112.017023,86.6302991 109.814898,86.6302991 C108.669725,86.6302991 107.510415,86.3261596 106.458552,85.6877509 C103.3844,83.8214145 102.397007,79.8022252 104.2536,76.7119405 L120.902432,49 L104.2536,21.2880595 C102.397007,18.1972063 103.3844,14.1785855 106.458552,12.3122491 C109.53327,10.4453442 113.530913,11.4379191 115.388072,14.5282038 L128.500158,36.3540502 L141.612243,14.5282038 C143.468837,11.4379191 147.466479,10.4453442 150.541197,12.3122491 C153.615915,14.1785855 154.603309,18.1972063 152.745584,21.2880595 L136.097318,49 L152.745584,76.7119405 C154.603309,79.8022252 153.615915,83.8214145 150.541197,85.6877509 M162.427807,70.8343736 L149.310066,49 L162.426676,27.1673318 C164.887242,23.0719656 165.614497,18.2597397 164.473283,13.6152168 C163.332635,8.97183099 160.461503,5.0521266 156.389213,2.58035362 C153.609695,0.891953036 150.426397,0 147.184852,0 C140.981692,0 135.135938,3.3148363 131.930586,8.65063694 L128.500158,14.3605007 L125.069164,8.64893148 C121.86268,3.31426781 116.018058,0 109.814332,0 C106.572787,0 103.390621,0.891953036 100.611668,2.57978514 C96.5388121,5.0521266 93.6671148,8.97183099 92.5264663,13.6152168 C91.3858177,18.2591712 92.1125076,23.0713971 94.5719426,27.1661949 L107.689684,49 L94.5719426,70.8343736 C92.1125076,74.9286029 91.3858177,79.7408288 92.5264663,84.3847832 C93.6671148,89.028169 96.5388121,92.9478734 100.612234,95.4207833 C103.392317,97.108047 106.574483,98 109.814898,98 C116.018058,98 121.863246,94.6851637 125.069729,89.3487946 L128.500158,83.6389308 L131.93002,89.3487946 C135.135938,94.6851637 140.981126,98 147.184852,98 C150.425832,98 153.608564,97.108047 156.388081,95.4202149 C160.461503,92.9478734 163.332635,89.028169 164.473283,84.3847832 C165.614497,79.7402603 164.887242,74.9274659 162.427807,70.8343736" id="Fill-9"></path>
            </g>
        </g>
    </g>
</svg>