<?xml version="1.0" encoding="UTF-8"?>
<svg width="252px" height="79px" viewBox="0 0 252 79" version="1.1" xmlns="http://www.w3.org/2000/svg" xmlns:xlink="http://www.w3.org/1999/xlink">
    <!-- Generator: Sketch 49.1 (51147) - http://www.bohemiancoding.com/sketch -->
    <title>Group 61x</title>
    <desc>Created with Sketch.</desc>
    <defs></defs>
    <g id="Newer-Jan-28---now-newer-Mar-15" stroke="none" stroke-width="1" fill="none" fill-rule="evenodd">
        <g id="Mixup_Home-color-3" transform="translate(-432.000000, -88.000000)" fill="#FF2AAE">
            <g id="Group-6" transform="translate(432.000000, 88.000000)">
                <g id="Group-34-Copy">
                    <path d="M34.107612,21.7834314 C39.6521021,17.4200684 45.840507,16.1130923 52.5950305,17.6227513 C61.56735,19.627459 67.7078803,27.1153678 67.9215212,36.339534 C68.0430033,41.5668405 68.0005144,46.799528 67.9466554,52.029226 C67.9065603,56.003964 65.0891335,58.8642447 61.2453926,58.9963772 C57.8253428,59.1141605 54.6123512,56.3465519 54.3945212,52.6480368 C54.143179,48.3791395 54.2760313,44.0887184 54.2365347,39.8072656 C54.2233691,38.3633739 54.2592752,36.915297 54.1593367,35.4767863 C53.9229553,32.0891712 51.1803328,29.7717698 47.5209094,29.7944894 C43.9321013,29.817209 41.0823591,32.2511979 41.0093502,35.6370194 C40.893254,41.0137971 40.9860112,46.3953579 40.9381365,51.7745271 C40.9046242,55.5896298 38.5850944,58.3183759 35.0052628,58.8827791 C31.164514,59.4884364 27.3339386,56.5623883 27.2226299,52.6827141 C27.072423,47.4566033 27.167574,42.2239159 27.1382507,36.9936199 C27.117904,33.3447292 25.6499456,31.0703755 22.7499349,30.123326 C18.1348127,28.6148628 13.917649,31.6473343 13.8578056,36.6026033 C13.7961669,41.6326078 13.8697743,46.6650039 13.8338682,51.6956063 C13.8075371,55.3325394 11.6549704,58.1091162 8.42941165,58.800271 C4.58267853,59.6247541 0.40441302,57.1064635 0.256001412,53.165805 C0.00166700403,46.4198711 -0.30114055,39.5537625 0.647377185,32.9136543 C2.05788589,23.0383916 11.7842321,16.2147327 21.7744877,17.0726974 C26.4398784,17.4726823 28.5726968,18.283414 34.107612,21.7834314" id="Fill-1"></path>
                    <path d="M238.837212,38.0089294 C238.86273,33.3577673 235.285499,29.6270545 230.823456,29.6515123 C226.266463,29.6765666 222.822162,33.2999037 222.858955,38.028615 C222.895154,42.6839529 226.38515,46.2112482 230.899416,46.1545777 C235.276004,46.0991002 238.812881,42.4697978 238.837212,38.0089294 M223.627454,56.5467664 C223.627454,57.2661843 223.627454,57.7917293 223.627454,58.3178707 C223.627454,62.841375 223.652972,67.3642827 223.618553,71.8871904 C223.588287,75.8589023 220.847801,78.8075613 217.09432,78.9924863 C213.585928,79.1660772 210.475732,76.3116703 210.047865,72.5159354 C210.00395,72.1222241 210.003357,71.7225475 210.003357,71.325257 C210.001577,55.8673162 209.995642,40.4087788 210.005731,24.950838 C210.008698,20.6158379 211.885735,17.9684277 215.444569,17.169671 C217.757188,16.6506879 219.733922,17.3522098 221.469722,18.8650157 C221.872071,19.2157767 222.179471,19.6751065 222.501707,20.0515184 C231.217497,14.8121754 240.632948,17.3009081 246.223706,23.2125429 C252.790073,30.155582 253.881401,40.9617642 248.863308,49.2696692 C247.163708,52.0835119 244.889663,54.3324386 242.077371,56.0092908 C239.311367,57.6587026 236.306208,58.5481322 233.0886,58.6948791 C229.82233,58.8434157 226.769103,57.9653202 223.627454,56.5467664" id="Fill-3"></path>
                    <path d="M199,31.5743613 C198.75549,35.2885045 199.001187,39.1192002 198.169139,42.6946757 C196.089614,51.6273872 190.128783,56.8334038 181.277151,58.5942448 C171.749554,60.4889718 162.021364,55.6110957 158.064687,46.8212358 C156.970919,44.3909644 156.350147,41.5919087 156.190503,38.920762 C155.890207,33.9089997 156.014836,28.8655591 156.096141,23.8376588 C156.154895,20.2137692 158.801186,17.4553575 162.353115,17.0387566 C165.394658,16.6819263 168.573887,18.8258966 169.45816,21.9512997 C169.723441,22.8867091 169.740652,23.9123721 169.754895,24.8979887 C169.821364,29.5768289 169.678338,34.2652323 169.936498,38.9321184 C170.178041,43.2947722 173.548961,46.2737374 177.638575,46.197231 C181.646884,46.1225178 184.915727,42.8805622 185.040949,38.5549661 C185.181009,33.678883 185.061721,28.7950298 185.111572,23.9153606 C185.145994,20.4982771 187.538872,17.7398654 190.867062,17.1487345 C194.78635,16.453005 198.614243,19.4905454 198.742433,23.4927827 C198.82908,26.1794697 198.75905,28.8709385 198.75905,31.5600164 C198.839169,31.564798 198.919881,31.5695797 199,31.5743613" id="Fill-5"></path>
                    <path d="M92.9874434,37.9638813 C92.9862109,42.5495389 93.0238013,47.1351965 92.9745025,51.7208541 C92.9350634,55.3807829 90.7844025,58.1276972 87.5386917,58.8336487 C83.1418535,59.7908608 79.0839447,56.5057039 79.0340296,51.8431545 C78.9742548,46.2500326 79.0180075,40.6563053 79.01924,35.062578 C79.0198562,31.2833761 78.9600814,27.5023579 79.048203,23.7249724 C79.1270811,20.3514202 81.8582356,17.402892 85.0417066,17.0493108 C88.5887565,16.6551646 91.7574379,18.653746 92.6836394,21.9734134 C92.9369121,22.8785571 92.9695726,23.8630143 92.9757349,24.8117502 C93.004698,29.1957939 92.9886759,33.5798376 92.9874434,37.9638813" id="Fill-7"></path>
                    <path d="M133.49472,39.4999999 L151.013354,10.4111624 C152.967604,7.1667369 151.92859,2.94844671 148.693722,0.989379413 C145.458259,-0.970284612 141.251621,0.071607406 139.297965,3.31543616 L125.500382,26.2257227 L111.7028,3.31543616 C109.748549,0.071607406 105.541911,-0.970284612 102.306448,0.989379413 C99.0715791,2.94844671 98.0325651,7.1667369 99.9862209,10.4111624 L117.505449,39.4999999 L99.9862209,68.5888373 C98.0325651,71.8332628 99.0715791,76.051553 102.306448,78.0106203 C103.413301,78.680749 104.63322,79 105.838262,79 C108.155513,79 110.416827,77.8190697 111.7028,75.6845635 L125.500382,52.774277 L139.297965,75.6845635 C140.583343,77.8190697 142.844656,79 145.161907,79 C146.36695,79 147.586869,78.680749 148.693722,78.0106203 C151.92859,76.051553 152.967604,71.8332628 151.013354,68.5888373 L133.49472,39.4999999 Z" id="Fill-9"></path>
                </g>
            </g>
        </g>
    </g>
</svg>