<?xml version="1.0" standalone="no"?><!-- Generator: Gravit.io --><svg xmlns="http://www.w3.org/2000/svg" xmlns:xlink="http://www.w3.org/1999/xlink" style="isolation:isolate" viewBox="0 0 1920 1080" width="1920" height="1080"><defs><clipPath id="_clipPath_cJKeyxzNi2ivJHHqCp6xm81Hpul5e4Fc"><rect width="1920" height="1080"/></clipPath></defs><g clip-path="url(#_clipPath_cJKeyxzNi2ivJHHqCp6xm81Hpul5e4Fc)"><rect width="1920" height="1080" style="fill:rgb(237,242,244)"/><rect x="100" y="80" width="500" height="900" transform="matrix(1,0,0,1,0,0)" fill="rgb(43,45,66)"/><rect x="130" y="110" width="440" height="100" transform="matrix(1,0,0,1,0,0)" fill="rgb(67,70,100)"/><rect x="129" y="240" width="440" height="100" transform="matrix(1,0,0,1,0,0)" fill="rgb(67,70,100)"/><rect x="130" y="370" width="440" height="100" transform="matrix(1,0,0,1,0,0)" fill="rgb(67,70,100)"/><rect x="130" y="500" width="440" height="100" transform="matrix(1,0,0,1,0,0)" fill="rgb(67,70,100)"/><rect x="130" y="630" width="440" height="100" transform="matrix(1,0,0,1,0,0)" fill="rgb(67,70,100)"/><rect x="711" y="80" width="500" height="900" transform="matrix(1,0,0,1,0,0)" fill="rgb(236,53,108)"/><rect x="1320" y="80" width="500" height="900" transform="matrix(1,0,0,1,0,0)" fill="rgb(239,35,60)"/><rect x="1350" y="110" width="440" height="100" transform="matrix(1,0,0,1,0,0)" fill="rgb(217,4,41)"/></g></svg>