<?xml version="1.0" standalone="no"?><!-- Generator: Gravit.io --><svg xmlns="http://www.w3.org/2000/svg" xmlns:xlink="http://www.w3.org/1999/xlink" style="isolation:isolate" viewBox="0 0 1920 1080" width="1920" height="1080"><defs><clipPath id="_clipPath_3Qzx56J7oHAABfA6gP8AT6S0R8ZbyxaU"><rect width="1920" height="1080"/></clipPath></defs><g clip-path="url(#_clipPath_3Qzx56J7oHAABfA6gP8AT6S0R8ZbyxaU)"><rect width="1920" height="1080" style="fill:rgb(237,242,244)"/><rect x="100" y="80" width="500" height="900" transform="matrix(1,0,0,1,0,0)" fill="rgb(43,45,66)"/><rect x="711" y="80" width="500" height="900" transform="matrix(1,0,0,1,0,0)" fill="rgb(255,255,255)"/><rect x="1320" y="80" width="500" height="900" transform="matrix(1,0,0,1,0,0)" fill="rgb(239,35,60)"/><path d=" M 263.717 157.82 L 263.717 176.131 L 258.736 176.131 L 258.736 133.299 L 282.613 133.299 L 282.613 137.723 L 263.717 137.723 L 263.717 153.396 L 281.471 153.396 L 281.471 157.82 L 263.717 157.82 Z  M 293.834 144.021 L 293.834 176.131 L 288.971 176.131 L 288.971 144.021 L 293.834 144.021 Z  M 288.561 135.32 L 288.561 135.32 L 288.561 135.32 Q 288.561 133.65 289.381 132.874 L 289.381 132.874 L 289.381 132.874 Q 290.201 132.098 291.432 132.098 L 291.432 132.098 L 291.432 132.098 Q 292.604 132.098 293.453 132.889 L 293.453 132.889 L 293.453 132.889 Q 294.303 133.68 294.303 135.32 L 294.303 135.32 L 294.303 135.32 Q 294.303 136.961 293.453 137.767 L 293.453 137.767 L 293.453 137.767 Q 292.604 138.572 291.432 138.572 L 291.432 138.572 L 291.432 138.572 Q 290.201 138.572 289.381 137.767 L 289.381 137.767 L 289.381 137.767 Q 288.561 136.961 288.561 135.32 Z  M 318.795 143.436 L 318.795 143.436 L 318.795 143.436 Q 320.934 143.436 322.633 143.787 L 322.633 143.787 L 321.959 148.299 L 321.959 148.299 Q 319.967 147.859 318.443 147.859 L 318.443 147.859 L 318.443 147.859 Q 314.547 147.859 311.778 151.023 L 311.778 151.023 L 311.778 151.023 Q 309.01 154.188 309.01 158.904 L 309.01 158.904 L 309.01 176.131 L 304.146 176.131 L 304.146 144.021 L 308.16 144.021 L 308.717 149.969 L 308.951 149.969 L 308.951 149.969 Q 310.738 146.834 313.258 145.135 L 313.258 145.135 L 313.258 145.135 Q 315.777 143.436 318.795 143.436 Z  M 342.203 176.717 L 342.203 176.717 L 342.203 176.717 Q 335.084 176.717 330.968 172.381 L 330.968 172.381 L 330.968 172.381 Q 326.852 168.045 326.852 160.34 L 326.852 160.34 L 326.852 160.34 Q 326.852 152.576 330.675 148.006 L 330.675 148.006 L 330.675 148.006 Q 334.498 143.436 340.943 143.436 L 340.943 143.436 L 340.943 143.436 Q 346.979 143.436 350.494 147.405 L 350.494 147.405 L 350.494 147.405 Q 354.01 151.375 354.01 157.879 L 354.01 157.879 L 354.01 160.955 L 331.891 160.955 L 331.891 160.955 Q 332.037 166.609 334.747 169.539 L 334.747 169.539 L 334.747 169.539 Q 337.457 172.469 342.379 172.469 L 342.379 172.469 L 342.379 172.469 Q 347.564 172.469 352.633 170.301 L 352.633 170.301 L 352.633 174.637 L 352.633 174.637 Q 350.055 175.75 347.755 176.233 L 347.755 176.233 L 347.755 176.233 Q 345.455 176.717 342.203 176.717 Z  M 340.885 147.508 L 340.885 147.508 L 340.885 147.508 Q 337.018 147.508 334.718 150.027 L 334.718 150.027 L 334.718 150.027 Q 332.418 152.547 332.008 157 L 332.008 157 L 348.795 157 L 348.795 157 Q 348.795 152.4 346.744 149.954 L 346.744 149.954 L 346.744 149.954 Q 344.693 147.508 340.885 147.508 Z  M 376.773 144.021 L 376.773 147.801 L 368.6 147.801 L 368.6 176.131 L 363.736 176.131 L 363.736 147.801 L 357.994 147.801 L 357.994 145.604 L 363.736 143.846 L 363.736 142.059 L 363.736 142.059 Q 363.736 130.223 374.078 130.223 L 374.078 130.223 L 374.078 130.223 Q 376.627 130.223 380.055 131.248 L 380.055 131.248 L 378.795 135.145 L 378.795 135.145 Q 375.982 134.236 373.99 134.236 L 373.99 134.236 L 373.99 134.236 Q 371.236 134.236 369.918 136.067 L 369.918 136.067 L 369.918 136.067 Q 368.6 137.898 368.6 141.941 L 368.6 141.941 L 368.6 144.021 L 376.773 144.021 Z  M 410.348 160.047 L 410.348 160.047 L 410.348 160.047 Q 410.348 167.898 406.393 172.308 L 406.393 172.308 L 406.393 172.308 Q 402.438 176.717 395.465 176.717 L 395.465 176.717 L 395.465 176.717 Q 391.158 176.717 387.818 174.695 L 387.818 174.695 L 387.818 174.695 Q 384.479 172.674 382.662 168.895 L 382.662 168.895 L 382.662 168.895 Q 380.846 165.115 380.846 160.047 L 380.846 160.047 L 380.846 160.047 Q 380.846 152.195 384.771 147.815 L 384.771 147.815 L 384.771 147.815 Q 388.697 143.436 395.67 143.436 L 395.67 143.436 L 395.67 143.436 Q 402.408 143.436 406.378 147.918 L 406.378 147.918 L 406.378 147.918 Q 410.348 152.4 410.348 160.047 Z  M 385.885 160.047 L 385.885 160.047 L 385.885 160.047 Q 385.885 166.199 388.346 169.422 L 388.346 169.422 L 388.346 169.422 Q 390.807 172.645 395.582 172.645 L 395.582 172.645 L 395.582 172.645 Q 400.357 172.645 402.833 169.437 L 402.833 169.437 L 402.833 169.437 Q 405.309 166.229 405.309 160.047 L 405.309 160.047 L 405.309 160.047 Q 405.309 153.924 402.833 150.745 L 402.833 150.745 L 402.833 150.745 Q 400.357 147.566 395.523 147.566 L 395.523 147.566 L 395.523 147.566 Q 390.748 147.566 388.316 150.701 L 388.316 150.701 L 388.316 150.701 Q 385.885 153.836 385.885 160.047 Z  M 414.859 176.131 L 426.607 159.695 L 415.445 144.021 L 420.982 144.021 L 429.449 156.326 L 437.887 144.021 L 443.365 144.021 L 432.203 159.695 L 443.951 176.131 L 438.443 176.131 L 429.449 163.123 L 420.367 176.131 L 414.859 176.131 Z " fill-rule="evenodd" fill="rgb(255,255,255)"/><line x1="148" y1="200" x2="552" y2="200" vector-effect="non-scaling-stroke" stroke-width="1" stroke="rgb(242,242,242)" stroke-linejoin="miter" stroke-linecap="square" stroke-miterlimit="3"/></g></svg>